<?xml version="1.0" encoding="utf-8"?>
<!-- Generator: Adobe Illustrator 19.1.0, SVG Export Plug-In . SVG Version: 6.00 Build 0)  -->
<svg version="1.1" id="Filled_Icons" xmlns="http://www.w3.org/2000/svg" xmlns:xlink="http://www.w3.org/1999/xlink" x="0px"
	 y="0px" viewBox="-467 269 24 24" style="enable-background:new -467 269 24 24;" xml:space="preserve">
<path d="M-449,281c0,3.3-2.7,6-6,6s-6-2.7-6-6c0-3.3,2.7-6,6-6S-449,277.7-449,281z M-444,273.5v0.7v3.3v10.3c0,2.3-1.9,4.2-4.2,4.2
	h-13.7c-2.3,0-4.2-1.9-4.2-4.2v-10.3v-3.3v-0.7c0-0.2,0-0.5,0.1-0.7c0-0.2,0.1-0.4,0.2-0.5c0,0,0-0.1,0-0.1c0.2-0.4,0.4-0.8,0.7-1.1
	c0,0,0,0,0,0v0c0.6-0.7,1.5-1.1,2.5-1.1h2.5h10h2.5C-445.6,270-444,271.6-444,273.5z M-445,277.5h-3.9c-0.3-0.5-0.6-1-1.1-1.4v0
	c-0.1-0.1-0.2-0.1-0.2-0.2c-0.1-0.1-0.2-0.2-0.4-0.3c-0.1-0.1-0.2-0.2-0.3-0.2c-0.1-0.1-0.3-0.2-0.4-0.3c-0.1-0.1-0.2-0.1-0.3-0.2
	c-0.2-0.1-0.4-0.2-0.7-0.3c-0.1,0-0.1,0-0.2-0.1c-0.2-0.1-0.4-0.2-0.6-0.2c-0.1,0-0.2,0-0.3-0.1c-0.2,0-0.4-0.1-0.6-0.1
	c-0.1,0-0.2,0-0.3,0c-0.3,0-0.6-0.1-0.9-0.1s-0.6,0-0.9,0.1c-0.1,0-0.2,0-0.3,0c-0.2,0-0.4,0.1-0.6,0.1c-0.1,0-0.2,0-0.3,0.1
	c-0.2,0.1-0.4,0.1-0.6,0.2c-0.1,0-0.1,0-0.2,0.1c-0.2,0.1-0.5,0.2-0.7,0.3c-0.1,0.1-0.2,0.1-0.3,0.2c-0.1,0.1-0.3,0.2-0.4,0.3
	c-0.1,0.1-0.2,0.1-0.3,0.2c-0.1,0.1-0.2,0.2-0.4,0.3c-0.1,0.1-0.2,0.1-0.2,0.2v0c-0.4,0.4-0.8,0.9-1.1,1.4h-3.9v10.3
	c0,1.7,1.4,3.2,3.2,3.2h13.7c1.7,0,3.2-1.4,3.2-3.2V277.5z M-445,272.5c0-0.3-0.2-0.5-0.5-0.5h-3c-0.3,0-0.5,0.2-0.5,0.5v3
	c0,0.3,0.2,0.5,0.5,0.5h3c0.3,0,0.5-0.2,0.5-0.5v-1.3V272.5z"/>
</svg>
